<mxfile host="app.diagrams.net" modified="2024-05-22T04:36:34.020Z" agent="Mozilla/5.0 (Windows NT 10.0; Win64; x64; rv:109.0) Gecko/20100101 Firefox/115.0" version="24.4.4" etag="h5VOmFS3EOFPwlQ6KV4l" type="github">
  <diagram name="Page-1" id="KdNaNpp9Obg8dHBMpSNs">
    <mxGraphModel>
      <root>
        <mxCell id="0" />
        <mxCell id="1" parent="0" />
      </root>
    </mxGraphModel>
  </diagram>
</mxfile>
